<?xml version="1.0" encoding="utf-8"?><!-- Uploaded to: SVG Repo, www.svgrepo.com, Generator: SVG Repo Mixer Tools -->
<svg width="800px" height="800px" viewBox="-0.91 0 38.185 38.185" xmlns="http://www.w3.org/2000/svg">
  <path id="coordinate" d="M423.092,318.052,412.81,352.988a.944.944,0,0,1-.024.367,1.088,1.088,0,0,1-1.322.717,1.006,1.006,0,0,1-.777-1.041c-.093.023-.187.039-.278.067l-5.085-16.352-17.705-.466c0-.047-.022-.09-.027-.137-.024,0-.047,0-.07,0a1.01,1.01,0,0,1-.763-1.243.979.979,0,0,1,.27-.426c-.039-.063-.057-.136-.1-.2l33.1-18.074c.02.03.047.055.068.084a1.855,1.855,0,0,1,1.535-.308,1.681,1.681,0,0,1,1.273,2.049C422.97,318.032,423.031,318.044,423.092,318.052Z" transform="translate(-386.721 -315.922)" fill="#2d5be2"/>
</svg>